P1
40 40
1101010101010101010101010101010101010101
1111111111111111111111111111111111111111
0101010101010101010101010101010101010101
1111111111111111111111111111111111111111
0101010101010101010101010101010101010101
1111111111111111111111111111111111111111
0101010101010101010101010101010101010101
1111111111111111111111111111111111111111
0101010101010101010101010101010101010101
1111111111111111111111111111111111111111
0101010101010101010101010101010101010101
1111111111111111111111111111111111111111
0101010101010101010101010101010101010101
1111111111111111111111111111111111111111
0101010101010101010101010101010101010101
1111111111111111111111111111111111111111
0101010101010101010101010101010101010101
1111111111111111111111111111111111111111
0001010101010101010101010101010101000101
1111111111111111111111111111111111111111
0101010101000101010101010101010101010101
1111111111111111111111111111111111111111
0101010101010101010101010101010101010101
1111111111111111111111111111111111111111
0101010101010101010101010101010101010101
1111111111111111111111111111111111111111
0101010101010101010101010101010101010101
1111111111111111111111111111111111111111
0101010101010101010101010101010101010101
1111111111111111111111111111111111111111
0101010101010101010101010101010101010101
1111111111111111111111111111111111111111
0101010101010101010101010101010101010101
1111111111111111111111111111111111111111
0101010101010101010101010101010101010101
1111111111111111111111111111111111111111
0101010101010101010101010101010101010101
1111111111111111111111111111111111111111
0101010101010101010101010101010101010101
1111111111111111111111111111111111111111
